<svg xmlns="http://www.w3.org/2000/svg" viewBox="0 0 878.22 851.05"><defs><style>.cls-1{fill:#ffffff;}.cls-2{fill:#ffffff;}</style></defs><g id="Capa_2" data-name="Capa 2"><g id="Capa_1-2" data-name="Capa 1"><path class="cls-1" d="M841.19,323c1.35,7.62,2.78,15.21,4,22.83a460.68,460.68,0,0,1,3.5,124.93,421.52,421.52,0,0,1-42.3,144.85c-36.9,73.52-90,130.32-157.57,172C599,818.37,545.33,837.54,488.29,846.17a453.49,453.49,0,0,1-121.88,1.47C324.85,842.7,284.6,832.2,246,815c-73-32.47-132-83.26-176.47-153-29-45.54-48.65-95.44-59.73-149.19A461,461,0,0,1,.54,396.75,407.81,407.81,0,0,1,42.83,234.06,415.71,415.71,0,0,1,170.6,81.92c53.64-39.45,112.85-64.2,177.15-75.44A444.27,444.27,0,0,1,491.37,5.23c88.27,13.32,166.19,51.34,233.94,113A327.78,327.78,0,0,1,762.41,158c1.74,2.21,1.7,3.32-.37,5.24q-13.53,12.52-26.73,25.45c-2,1.9-3,2-4.87-.21A385,385,0,0,0,596.59,84.73a394.62,394.62,0,0,0-125-35.41,455.41,455.41,0,0,0-129.48,4.27c-61.73,10.86-117.55,36.28-165.86,79.2C142.36,163,115.17,199,93.83,240.13A437,437,0,0,0,48,385.05c-3.6,27.14-2.22,54.12,1.58,81.07a482.18,482.18,0,0,0,32.7,120c27,64.26,66.35,117.8,121.68,157.2C240.07,769,279.7,786,322,796.07a424.66,424.66,0,0,0,115.88,11.56C490.32,805.55,541.38,795.81,590,774c80.89-36.26,139.33-97.7,178.12-180.92,20.27-43.48,33.29-89.39,39.92-137.39,3.67-26.56,5.15-53.19,2.79-80a103.2,103.2,0,0,0-2.39-15c-.36-1.51-.46-2.68.57-3.92,9.76-11.82,20.3-22.8,31-33.6C840.18,323.11,840.48,323.13,841.19,323Z"/><path class="cls-2" d="M255,302.7a86.18,86.18,0,0,0-16.21,1.13,91.56,91.56,0,0,0-19.44,5.1c-7.62,2.82-14.61,6.58-19.34,13.92-7.41,11.53-4.83,27.53,5.78,35.66,8.9,6.82,19.23,10.09,29.64,12.79,19.06,4.94,38.29,9.15,57.35,14.09,18,4.67,35.69,10.63,52,20.32,23.94,14.19,39.87,34.58,43.88,64.21,5.32,39.28-7.81,81.3-44.78,105.79-20.38,13.5-42.9,20.21-66.37,23.91-50.83,8-100.4,1-149.23-14.43-6.43-2-12.79-4.29-19.23-6.26-2.05-.62-2.56-1.74-2.57-3.88q-.23-40.12-.64-80.25c0-2.72.6-3.73,3.22-3.4,3,.38,6.08.52,9.13.6a5.41,5.41,0,0,1,3.54,1.72c29.08,25.21,62.6,38.59,99.73,42.22,18.13,1.77,36.07.76,53.62-4.84a47.94,47.94,0,0,0,13.61-6.57c12.85-9.24,15.2-23.25,6.09-36.68-5.44-8-13.29-12.47-21.68-15.9-13.14-5.39-26.93-8.15-40.69-11-21.4-4.48-42.92-8.56-63.3-17.24-18.46-7.86-34.64-19-46.11-36.86-9.56-14.85-14.53-31.53-15.69-49.22-3-45.84,20.09-80.14,51.88-97.68C178,249.56,198,244.26,218.82,241.11c30-4.56,59.62-1,89.23,3.68,19.29,3.08,38.52,6.56,57,13.56,12.22,4.63,12.2,4.76,12.09,18.48-.17,21.16-.44,42.33-.49,63.5,0,3-.89,3.67-3.61,4.1-5.54.87-9.71-.6-14.23-4.41-23.73-20-51-31.13-80.94-35-3.74-.49-7.48-.93-11.23-1.39"/><path class="cls-2" d="M528.73,595.91c-4.71-9.85-7.79-20.4-11.32-30.73Q464.72,411,413.72,256.19c-.89-2.69-1.7-5.43-2.8-8-1.25-3-.15-3.57,2.43-3.55,8.18,0,16.35,0,24.53-.06,18.91-.06,37.82,0,56.73-.29,3.61-.05,5.06,1.31,6.22,4.72,14,41.52,27.23,83.33,40.6,125.08q17.15,53.6,34.16,107.25c.38,1.19.78,2.36,1.42,4.31,1.12-3.1,1.94-5.5,2.86-7.85,7.18-18.48,17.29-35.17,27.87-51.55,14.51-22.47,29.37-44.74,47.16-64.46,14-15.54,28.65-30.47,43.13-45.53,40.85-42.45,82.19-84.36,123.55-126.25,14.75-14.94,29.63-29.75,44.46-44.61.33-.33,11.77-12.66,12.18-12.9,0,.81-7.77,12-10.1,14.82-4.06,5.83-8.29,11.49-12.44,17.38-36.18,51.28-71,103.57-105.49,156.17-17.36,26.51-34.72,53-51,80.34-10.55,17.72-18.23,37-25.74,56.27C656.25,501.7,641.2,546.8,627,592.22c-.38,1.22-.92,2.38-1.39,3.57H615Z"/><path class="cls-1" d="M528.73,595.91l86.25-.12h10.6c-.67,1.48-1.93.77-2.89.77q-45.45.06-90.91,0C530.75,596.57,529.56,597.05,528.73,595.91Z"/></g></g></svg>